<svg width="173" height="41" viewBox="0 0 173 41" fill="none" xmlns="http://www.w3.org/2000/svg">
<path d="M34.2647 22.5691L31.9644 12.1239C31.5566 12.0729 31.1658 11.9239 30.8231 11.6887C30.4805 11.4536 30.1953 11.1388 29.9902 10.7693L29.2434 9.4235C29.0683 9.11187 28.9572 8.76593 28.9173 8.4075L25.4839 6.69634L19.5528 3.79985C18.8244 3.56869 18.0396 3.62258 17.3469 3.95135H17.2439L7.17562 9.02245C6.74692 9.22704 6.3692 9.53112 6.07157 9.91123C5.77393 10.2914 5.56434 10.7374 5.45895 11.2149L2.99553 22.5691C2.94393 22.797 2.91801 23.0302 2.91828 23.2643V23.2643C2.90389 24.0174 3.14378 24.7521 3.59636 25.3409L10.5918 34.4492C10.6533 34.5357 10.7223 34.6163 10.7978 34.6899C11.306 35.2344 11.9848 35.5726 12.7119 35.6435C12.8147 35.6524 12.9181 35.6524 13.0209 35.6435H24.2393C24.3422 35.6524 24.4455 35.6524 24.5483 35.6435C25.2754 35.5726 25.9542 35.2344 26.4624 34.6899L26.6684 34.4492L33.6639 25.3409C34.0954 24.7717 34.3311 24.0689 34.3334 23.3445V23.291C34.336 23.0485 34.3129 22.8064 34.2647 22.5691V22.5691Z" fill="#3BD9CD"/>
<path d="M85.2069 14.0311C84.9706 14.0236 84.7353 14.0645 84.5143 14.1517C84.2934 14.2389 84.0912 14.3706 83.9194 14.5391C83.7465 14.7146 83.6113 14.9259 83.5226 15.1594C83.4338 15.3928 83.3936 15.6431 83.4044 15.8938V25.0556C83.4128 25.769 83.2056 26.4671 82.8122 27.052C82.4068 27.6618 81.8569 28.1529 81.2156 28.478C80.4992 28.8382 79.7112 29.0183 78.9153 29.0038C78.0706 29.019 77.2337 28.8331 76.469 28.4601C75.7462 28.0998 75.1471 27.5182 74.7524 26.7935C74.3074 25.8967 74.0916 24.8963 74.1258 23.8881V15.8671C74.1342 15.6193 74.0928 15.3724 74.0041 15.1422C73.9154 14.9121 73.7815 14.7036 73.6108 14.5302C73.441 14.3576 73.2395 14.2222 73.0184 14.1318C72.7972 14.0415 72.5609 13.9982 72.3233 14.0044C72.0848 13.993 71.8466 14.0333 71.624 14.1229C71.4014 14.2125 71.1992 14.3493 71.0304 14.5246C70.8615 14.6999 70.7298 14.9098 70.6435 15.141C70.5573 15.3721 70.5184 15.6194 70.5294 15.8671V23.8881C70.4794 25.5032 70.828 27.1047 71.5422 28.5403C72.1746 29.7659 73.1383 30.7727 74.3146 31.4368C75.5337 32.1026 76.8943 32.4397 78.2716 32.4172C79.6094 32.4388 80.9302 32.1043 82.1083 31.4457C82.5672 31.1978 82.9989 30.899 83.3958 30.5545C83.4243 30.9135 83.5505 31.2566 83.7598 31.5438C83.969 31.8311 84.2526 32.0506 84.5775 32.1767C84.9024 32.3029 85.2552 32.3305 85.5946 32.2563C85.934 32.1821 86.2461 32.0091 86.4944 31.7577C86.6568 31.5793 86.7836 31.3694 86.8675 31.1399C86.9515 30.9105 86.9909 30.6661 86.9837 30.4208V15.8938C86.9946 15.6462 86.9558 15.3989 86.8695 15.1677C86.7833 14.9365 86.6515 14.7266 86.4827 14.5513C86.3139 14.376 86.1117 14.2392 85.889 14.1496C85.6664 14.0601 85.4282 14.0197 85.1897 14.0311H85.2069Z" fill="#171B49"/>
<path d="M103 15.1273C101.699 14.34 100.214 13.9421 98.7086 13.9777C97.1372 13.9502 95.5873 14.3594 94.2195 15.163C92.9304 15.9395 91.8707 17.0675 91.1552 18.4249C90.4038 19.9008 90.0258 21.5506 90.0565 23.2197C90.0054 24.8943 90.3941 26.5518 91.181 28.0145C91.9534 29.3807 93.0729 30.4999 94.4169 31.2497C95.6062 31.905 96.9129 32.2986 98.2554 32.4059C99.5978 32.5133 100.947 32.332 102.219 31.8735C103.19 31.5474 104.102 31.0532 104.914 30.4119C105.102 30.2812 105.254 30.1028 105.356 29.8937C105.458 29.6847 105.507 29.4519 105.498 29.2177C105.476 28.9804 105.409 28.7501 105.3 28.5404C105.19 28.3307 105.042 28.1458 104.863 27.9967C104.56 27.7296 104.17 27.5925 103.773 27.6135C103.363 27.6259 102.968 27.7691 102.64 28.0234C102.152 28.379 101.617 28.6583 101.052 28.8523C100.436 29.0873 99.7854 29.2109 99.1291 29.2177C98.0621 29.2378 97.0086 28.9674 96.0735 28.4334C95.2058 27.9318 94.4851 27.1958 93.9877 26.3034C93.6872 25.7643 93.4754 25.1769 93.3611 24.5655H105.017C105.232 24.5727 105.446 24.5354 105.646 24.4558C105.846 24.3763 106.03 24.256 106.185 24.102C106.339 23.9519 106.461 23.7693 106.542 23.5665C106.624 23.3637 106.663 23.1452 106.657 22.9256C106.685 21.3293 106.362 19.7473 105.713 18.3001C105.118 16.9956 104.177 15.8947 103 15.1273V15.1273ZM93.9019 20.1093C94.3077 19.228 94.9481 18.4858 95.7473 17.9704C96.6431 17.4321 97.6655 17.1636 98.7 17.195C99.5714 17.1594 100.433 17.3948 101.175 17.8712C101.917 18.3476 102.504 19.0431 102.863 19.8687C103.111 20.4074 103.281 20.9809 103.369 21.5709H93.3955C93.4996 21.0669 93.6579 20.5766 93.8675 20.1093H93.9019Z" fill="#171B49"/>
<path d="M131.119 14.7798C130.12 14.2116 128.996 13.9229 127.858 13.942C126.565 13.9213 125.289 14.2434 124.15 14.8778C123.482 15.2567 122.883 15.7545 122.381 16.3484C121.925 15.7029 121.339 15.1678 120.665 14.7798C119.666 14.2116 118.542 13.9229 117.403 13.942C116.21 13.9238 115.036 14.2509 114.013 14.8867C113.709 15.0708 113.422 15.2826 113.154 15.5195C113.089 15.1832 112.931 14.8737 112.699 14.6283C112.528 14.4558 112.325 14.3211 112.102 14.2322C111.88 14.1434 111.642 14.1023 111.403 14.1114C111.167 14.1055 110.931 14.1481 110.71 14.2368C110.489 14.3255 110.287 14.4585 110.116 14.6283C109.943 14.8037 109.808 15.0151 109.719 15.2485C109.63 15.482 109.59 15.7322 109.601 15.983V30.4654C109.608 30.8357 109.72 31.1956 109.921 31.5013C110.122 31.807 110.405 32.0453 110.734 32.1871C111.064 32.3288 111.426 32.3679 111.776 32.2996C112.127 32.2313 112.45 32.0585 112.708 31.8023C112.87 31.6239 112.997 31.414 113.081 31.1846C113.165 30.9551 113.205 30.7108 113.197 30.4654V21.3036C113.161 20.2544 113.525 19.2327 114.21 18.4606C114.538 18.0956 114.938 17.8081 115.382 17.6174C115.826 17.4268 116.305 17.3374 116.785 17.3555C117.221 17.3319 117.658 17.3985 118.069 17.5515C118.48 17.7045 118.857 17.9408 119.18 18.2467C119.508 18.6418 119.757 19.1003 119.913 19.596C120.069 20.0916 120.129 20.6144 120.09 21.1343V30.4654C120.081 30.7132 120.123 30.9601 120.211 31.1903C120.3 31.4204 120.434 31.6289 120.605 31.8023C120.953 32.1426 121.414 32.332 121.892 32.332C122.371 32.332 122.831 32.1426 123.18 31.8023C123.345 31.6255 123.474 31.4161 123.559 31.1864C123.645 30.9567 123.685 30.7116 123.678 30.4654V21.3036C123.639 20.2573 123.997 19.237 124.673 18.4606C124.991 18.0853 125.386 17.7882 125.828 17.5909C126.271 17.3936 126.75 17.301 127.231 17.3198C127.667 17.2952 128.104 17.3614 128.515 17.5144C128.926 17.6675 129.304 17.9043 129.626 18.211C129.954 18.6061 130.203 19.0647 130.359 19.5603C130.515 20.0559 130.575 20.5788 130.536 21.0986V30.4654C130.543 30.8357 130.654 31.1956 130.856 31.5013C131.057 31.807 131.339 32.0453 131.669 32.1871C131.998 32.3288 132.36 32.3679 132.711 32.2996C133.062 32.2313 133.385 32.0585 133.643 31.8023C133.805 31.6239 133.932 31.414 134.016 31.1846C134.1 30.9551 134.139 30.7108 134.132 30.4654V21.1699C134.167 19.8196 133.896 18.4797 133.342 17.2574C132.857 16.2188 132.083 15.3556 131.119 14.7798Z" fill="#171B49"/>
<path d="M150.784 15.1096C149.628 14.3846 148.317 13.9692 146.969 13.9008C145.621 13.8323 144.277 14.113 143.059 14.7174C142.182 15.1666 141.386 15.7696 140.707 16.4999V8.29165C140.719 8.04328 140.681 7.79499 140.595 7.56277C140.51 7.33054 140.378 7.11951 140.209 6.94323C140.04 6.76696 139.838 6.62935 139.614 6.53925C139.391 6.44915 139.152 6.40855 138.913 6.42006C138.676 6.41417 138.441 6.45678 138.22 6.54548C137.999 6.63417 137.797 6.76721 137.625 6.93698C137.453 7.11241 137.317 7.32376 137.229 7.55721C137.14 7.79065 137.1 8.04092 137.11 8.29165V23.1128C137.112 24.7634 137.52 26.3862 138.295 27.8274C139.07 29.2209 140.185 30.3781 141.528 31.1826C142.87 31.9871 144.393 32.4106 145.943 32.4106C147.493 32.4106 149.015 31.9871 150.358 31.1826C151.7 30.3781 152.815 29.2209 153.591 27.8274C154.383 26.3908 154.789 24.7594 154.766 23.1039C154.786 21.4705 154.418 19.8572 153.694 18.4071C153.017 17.0634 152.014 15.9266 150.784 15.1096V15.1096ZM148.689 28.2374C147.859 28.7391 146.916 29.0035 145.956 29.0035C144.995 29.0035 144.052 28.7391 143.222 28.2374C142.412 27.7252 141.751 26.9954 141.308 26.1251C140.834 25.195 140.595 24.1557 140.613 23.1039C140.594 22.0547 140.833 21.0179 141.308 20.0915C141.654 19.445 142.122 18.8769 142.683 18.4207C143.245 17.9645 143.888 17.6295 144.576 17.4352C145.263 17.2409 145.982 17.1913 146.688 17.2893C147.395 17.3874 148.075 17.631 148.689 18.006C149.49 18.5181 150.149 19.2366 150.604 20.0915C151.088 21.0149 151.333 22.0527 151.316 23.1039C151.328 24.1573 151.083 25.1967 150.604 26.1251C150.155 26.9916 149.495 27.7201 148.689 28.2374V28.2374Z" fill="#171B49"/>
<path d="M172.757 15.1452C172.657 14.9258 172.516 14.7292 172.342 14.567C172.168 14.4048 171.965 14.2802 171.744 14.2005C171.544 14.0862 171.323 14.0185 171.095 14.0022C170.867 13.986 170.638 14.0215 170.425 14.1064C170.212 14.1912 170.019 14.3233 169.86 14.4935C169.701 14.6637 169.579 14.8678 169.504 15.0917L164.655 26.4816L159.11 15.0561C159.026 14.8432 158.901 14.6502 158.743 14.4889C158.586 14.3277 158.398 14.2015 158.191 14.1181C157.985 14.0347 157.764 13.9958 157.543 14.0039C157.322 14.0119 157.104 14.0667 156.904 14.1648C156.494 14.3268 156.159 14.6458 155.968 15.0561C155.881 15.2764 155.843 15.5147 155.858 15.7527C155.872 15.9906 155.94 16.2218 156.054 16.4286L163.084 30.2604L160.002 37.4794C159.895 37.6866 159.829 37.9138 159.807 38.1478C159.785 38.3818 159.807 38.6181 159.874 38.843C159.967 39.0645 160.102 39.2641 160.272 39.4296C160.442 39.595 160.642 39.7229 160.861 39.8055C161.129 39.938 161.422 40.0109 161.719 40.0194C162.033 40.006 162.334 39.8891 162.58 39.6855C162.825 39.4819 163.002 39.2024 163.084 38.8875L172.654 16.5355C172.76 16.3228 172.824 16.0901 172.842 15.8512C172.86 15.6124 172.831 15.3722 172.757 15.1452V15.1452Z" fill="#171B49"/>
<path d="M65.9974 26.3212C65.5303 26.2892 65.0684 26.4385 64.7013 26.7401C63.9127 27.3611 63.0464 27.8678 62.1263 28.2462C60.1415 29.0192 57.9438 28.952 56.0063 28.0591C54.9827 27.5854 54.0627 26.9 53.3026 26.0449C52.516 25.176 51.8955 24.1598 51.4743 23.0504C51.0366 21.8736 50.8154 20.6221 50.822 19.3607C50.8162 18.1109 51.0375 16.8712 51.4743 15.7066C51.8975 14.5956 52.5177 13.5768 53.3026 12.7032C54.0693 11.8536 54.9876 11.1666 56.0063 10.6801C57.0155 10.1959 58.1134 9.94361 59.2251 9.94039C60.2749 9.90232 61.3217 10.0779 62.3065 10.4573C63.1428 10.8384 63.9184 11.3493 64.6068 11.9724C64.9602 12.2846 65.4119 12.4508 65.8758 12.4393C66.3396 12.4278 66.7832 12.2394 67.1218 11.91C67.286 11.7545 67.4162 11.5643 67.5035 11.3521C67.5909 11.14 67.6334 10.9108 67.6282 10.6801C67.6301 10.4916 67.6129 10.3034 67.5767 10.1186C67.5283 9.93391 67.4499 9.7591 67.3449 9.60172C67.2369 9.42722 67.1037 9.27093 66.9501 9.13828C65.9067 8.22399 64.7229 7.49796 63.4481 6.99042C62.0879 6.51889 60.6586 6.29869 59.2251 6.33982C57.5813 6.3264 55.9529 6.66941 54.4442 7.34691C53.0154 8.01365 51.7243 8.96087 50.6417 10.1365C49.533 11.3282 48.6584 12.7328 48.0667 14.2718C47.4412 15.8891 47.1263 17.6178 47.1397 19.3607C47.1247 21.121 47.4395 22.8676 48.0667 24.5031C48.656 26.0459 49.5309 27.4539 50.6417 28.6473C51.7517 29.8469 53.0849 30.7997 54.5605 31.4477C56.036 32.0958 57.623 32.4256 59.2251 32.4172C60.6077 32.4219 61.9808 32.1807 63.285 31.7042C64.6102 31.21 65.8483 30.4935 66.9501 29.5831C67.1323 29.3936 67.2779 29.1698 67.3793 28.9236C67.5138 28.5859 67.557 28.2165 67.504 27.8552C67.4511 27.4939 67.3041 27.1546 67.0789 26.8737C66.798 26.5551 66.4119 26.3578 65.9974 26.3212V26.3212Z" fill="#171B49"/>
<path d="M35.1917 7.63212L34.4449 6.28637C34.3758 6.15831 34.2748 6.05189 34.1525 5.9782C34.0302 5.90452 33.8911 5.86629 33.7497 5.86749H32.2905C32.1513 5.87212 32.0152 5.91186 31.8941 5.98328C31.773 6.05471 31.6704 6.15567 31.5953 6.27746L30.8485 7.63212C30.7767 7.75751 30.7388 7.90068 30.7388 8.04655C30.7388 8.19241 30.7767 8.33558 30.8485 8.46097L31.5953 9.80672C31.6668 9.93189 31.7686 10.0355 31.8905 10.1074C32.0125 10.1793 32.1503 10.217 32.2905 10.2167H33.784C33.9247 10.2197 34.0636 10.1832 34.186 10.1111C34.3084 10.0389 34.4097 9.93376 34.4793 9.80672L35.1917 8.46097C35.2635 8.33558 35.3014 8.19241 35.3014 8.04655C35.3014 7.90068 35.2635 7.75751 35.1917 7.63212Z" fill="#171B49"/>
<path d="M29.7413 6.00115C29.7948 5.88887 29.8031 5.75913 29.7645 5.64047C29.7259 5.5218 29.6434 5.42393 29.5353 5.36837L26.7972 3.99588C26.6874 3.94563 26.5632 3.94069 26.45 3.98208C26.3368 4.02347 26.243 4.10807 26.1878 4.21869C26.1604 4.27459 26.1442 4.33568 26.1402 4.39826C26.1362 4.46085 26.1445 4.52362 26.1646 4.58278C26.1846 4.64194 26.216 4.69626 26.2569 4.74244C26.2978 4.78863 26.3473 4.82571 26.4023 4.85146L29.1319 6.22395C29.1859 6.25114 29.2446 6.26695 29.3046 6.27046C29.3646 6.27397 29.4246 6.26511 29.4813 6.24439C29.5379 6.22368 29.5901 6.19152 29.6347 6.14977C29.6793 6.10802 29.7156 6.05751 29.7413 6.00115V6.00115Z" fill="#171B49"/>
<path d="M17.0036 27.6491C18.1194 26.6598 18.2911 24.8952 18.3168 23.1306C18.3168 22.7563 18.3168 22.3819 18.3168 21.9987H10.6519C9.84504 22.0522 9.79354 22.2394 9.79354 25.2874C9.73758 26.167 9.9975 27.037 10.5231 27.7293C10.7267 27.9448 10.9768 28.1067 11.2527 28.2017C11.375 28.2479 11.5016 28.2808 11.6304 28.2997C14.214 28.781 15.9736 28.5582 17.0036 27.6491Z" fill="white"/>
<path d="M25.4754 18.6121C25.1492 15.2343 24.7458 11.0366 24.1621 7.66777C23.2437 2.39169 22.3682 2.16888 22.1965 2.16888C20.6601 2.16888 19.2782 11.001 19.2353 21.0897H25.7501C25.6385 20.3143 25.5526 19.4855 25.4754 18.6121Z" fill="#3BD9CD"/>
<path d="M19.5014 29.6544C19.421 29.5309 19.3122 29.4303 19.1847 29.3618C19.0573 29.2933 18.9153 29.2591 18.7718 29.2623C18.7718 29.2623 18.0079 29.2623 18.0079 29.8415C18.0079 30.0465 18.1109 30.5011 18.7718 31.2764C19.3641 30.5813 19.6387 29.9752 19.5014 29.6544Z" fill="white"/>
<path d="M15.3814 8.48768C15.1367 8.37197 14.8652 8.33147 14.599 8.37095C14.3328 8.41044 14.083 8.52826 13.8793 8.71049C11.8107 10.1008 9.0297 13.6479 8.84087 15.1362C8.82119 15.2121 8.82119 15.2921 8.84087 15.368C8.94387 15.466 9.99104 15.368 12.2141 14.3341C12.2141 14.3341 12.6605 14.2272 12.8665 14.45C12.9254 14.5231 12.9644 14.6112 12.9795 14.7052C12.9946 14.7993 12.9852 14.8958 12.9523 14.9847C12.4888 16.8563 12.094 19.3963 11.845 21.054H18.2911C18.2482 19.5389 17.8276 9.84235 15.3814 8.48768Z" fill="#3BD9CD"/>
<path d="M19.9477 28.371C19.4138 27.8924 19.0086 27.2783 18.7717 26.5885C18.5348 27.2783 18.1297 27.8924 17.5958 28.371C16.3427 29.4761 14.3427 29.7613 11.4759 29.2622C11.5913 30.01 11.8939 30.7131 12.3533 31.3012C12.8128 31.8893 13.413 32.3417 14.0938 32.6133C14.7694 32.8501 15.4903 32.913 16.1946 32.7965C16.8988 32.6801 17.5652 32.3878 18.1366 31.9448C17.5689 31.3936 17.2072 30.6518 17.1152 29.8504C17.1304 29.6325 17.1869 29.4199 17.2815 29.2247C17.3761 29.0296 17.507 28.8558 17.6665 28.7133C17.826 28.5709 18.0111 28.4626 18.2111 28.3946C18.4111 28.3267 18.622 28.3005 18.8318 28.3175C19.1566 28.3076 19.4775 28.3937 19.757 28.5656C20.0366 28.7376 20.2635 28.9884 20.4112 29.289C20.703 30.0109 20.4112 30.9021 19.4927 31.9627C20.0644 32.405 20.7309 32.6968 21.4349 32.8132C22.139 32.9296 22.8598 32.8671 23.5355 32.6311C24.2088 32.354 24.8006 31.899 25.2523 31.3112C25.704 30.7234 25.9998 30.0232 26.1105 29.28V29.28C23.175 29.797 21.2008 29.4761 19.9477 28.371Z" fill="#3BD9CD"/>
<path d="M26.8659 22.0165H19.2267C19.2267 22.3998 19.2267 22.7741 19.2267 23.1484C19.2267 24.9309 19.4241 26.7133 20.5399 27.6669C21.6558 28.6205 23.3295 28.7899 25.9131 28.3353C26.0305 28.3194 26.1457 28.2895 26.2565 28.2462V28.2462C26.5281 28.1529 26.773 27.9905 26.9689 27.7739C26.9743 27.7598 26.9839 27.748 26.9962 27.74C27.0086 27.732 27.023 27.7282 27.0375 27.7293C27.5375 27.0446 27.7897 26.1991 27.75 25.3408C27.75 22.2483 27.6985 22.0611 26.8659 22.0165Z" fill="white"/>
<path d="M22.4026 26.2321C22.6083 26.2338 22.81 26.1721 22.9819 26.0547C23.1538 25.9372 23.2883 25.7694 23.3682 25.5726C23.4481 25.3757 23.4699 25.1586 23.4308 24.9488C23.3917 24.739 23.2935 24.546 23.1486 24.3943C23.0037 24.2426 22.8186 24.139 22.6169 24.0967C22.4152 24.0544 22.206 24.0752 22.0157 24.1565C21.8254 24.2379 21.6627 24.3761 21.5482 24.5536C21.4337 24.7312 21.3726 24.94 21.3726 25.1537C21.3725 25.4381 21.4808 25.7111 21.6737 25.9131C21.8666 26.115 22.1286 26.2297 22.4026 26.2321Z" fill="#171B49"/>
<path d="M15.141 26.2321C15.3468 26.2338 15.5484 26.1721 15.7204 26.0547C15.8923 25.9372 16.0267 25.7694 16.1067 25.5726C16.1866 25.3757 16.2084 25.1586 16.1693 24.9488C16.1302 24.739 16.0319 24.546 15.887 24.3943C15.7421 24.2426 15.5571 24.139 15.3554 24.0967C15.1537 24.0544 14.9444 24.0752 14.7542 24.1565C14.5639 24.2379 14.4012 24.3761 14.2867 24.5536C14.1722 24.7312 14.111 24.94 14.111 25.1537C14.111 25.4381 14.2193 25.7111 14.4122 25.9131C14.6051 26.115 14.8671 26.2297 15.141 26.2321Z" fill="#171B49"/>
<path d="M26.6083 21.063C26.5311 20.2965 26.4452 19.432 26.3594 18.514C25.8015 12.7567 25.2607 7.81928 24.4367 4.67325C24.3252 4.23654 24.205 3.82658 24.0762 3.47009C23.587 2.00847 22.969 1.17963 22.1965 1.17963C21.9532 1.19293 21.7162 1.26514 21.5046 1.39049C21.293 1.51583 21.1125 1.69084 20.9776 1.90152C20.7914 2.14619 20.633 2.41235 20.5056 2.69472C19.655 4.93865 19.137 7.30351 18.9691 9.70869C18.8146 11.0455 18.6859 12.5161 18.5829 14.0846C17.9821 10.5197 17.0551 8.3362 15.8191 7.64995C15.4303 7.45118 14.9955 7.37001 14.5645 7.41572C14.1334 7.46142 13.7234 7.63216 13.3814 7.90841C11.0553 9.47697 8.15412 13.2558 7.93095 15.0382C7.8962 15.2127 7.89976 15.393 7.94137 15.5658C7.98298 15.7386 8.06157 15.8995 8.17129 16.0364C8.65195 16.5979 9.88796 16.4375 11.8793 15.5552C11.4415 17.5069 11.0982 19.8152 10.9265 21.0897C8.87512 21.1966 8.87512 22.0879 8.87512 25.3319C8.87512 27.0609 9.42445 28.2997 10.463 28.8969C10.8836 32.0162 12.7119 33.1302 13.7676 33.5134C14.6069 33.8119 15.5049 33.8868 16.3792 33.731C17.2536 33.5753 18.0763 33.194 18.7717 32.6222C19.7134 33.3994 20.8819 33.8206 22.0849 33.8164V33.8164C22.6692 33.822 23.25 33.7225 23.8016 33.5223C24.8573 33.1391 26.677 32.0251 27.1062 28.9058C28.1447 28.2908 28.6941 27.052 28.6941 25.3409C28.6683 22.07 28.6683 21.1699 26.6083 21.063ZM21.321 3.06012C21.441 2.77498 21.6064 2.51286 21.8102 2.28475C21.9214 2.19914 22.0585 2.158 22.1965 2.16889C22.2823 2.16889 22.5227 2.23128 22.8574 2.88187C23.0622 3.28921 23.2289 3.71598 23.3552 4.15633C23.6967 5.32568 23.9662 6.51639 24.1621 7.72125C24.7457 11.0901 25.1492 15.2878 25.4753 18.6655C25.5526 19.5568 25.6384 20.3678 25.7157 21.1075H19.2352C19.2696 12.9439 20.1708 5.6536 21.321 3.06012ZM12.9608 14.9848C12.9937 14.8958 13.0031 14.7993 12.988 14.7053C12.9729 14.6113 12.9339 14.5231 12.875 14.45C12.669 14.2272 12.257 14.3253 12.2226 14.3342C9.99954 15.3947 8.95237 15.466 8.84937 15.368C8.82969 15.2921 8.82969 15.2122 8.84937 15.1363C9.0382 13.6479 11.8192 10.1008 13.8878 8.71051C14.0915 8.52829 14.3413 8.41047 14.6075 8.37098C14.8736 8.3315 15.1452 8.372 15.3899 8.48771C17.8361 9.84237 18.2567 19.5479 18.3082 21.054H11.8535C12.0767 19.3964 12.4973 16.8563 12.9608 14.9848ZM10.5231 27.7472C10.0056 27.0642 9.74613 26.2085 9.79354 25.3409C9.79354 22.2928 9.84504 22.1057 10.6519 22.0522H18.3168C18.3168 22.4354 18.3168 22.8098 18.3168 23.1841C18.3168 24.9665 18.1194 26.749 17.0036 27.7026C15.8877 28.6562 14.214 28.8345 11.6304 28.371C11.5015 28.3521 11.375 28.3192 11.2527 28.273C10.9716 28.1627 10.721 27.982 10.5231 27.7472V27.7472ZM18.025 29.8416C18.025 29.2979 18.7803 29.2623 18.7889 29.2623C18.9324 29.2591 19.0743 29.2933 19.2018 29.3618C19.3293 29.4303 19.4381 29.5309 19.5185 29.6544C19.6558 29.9752 19.3811 30.5456 18.7889 31.2764C18.1108 30.5011 18.025 30.0465 18.025 29.8416ZM23.4926 32.6044C22.8168 32.8404 22.0961 32.9029 21.392 32.7865C20.6879 32.6701 20.0215 32.3782 19.4498 31.936C20.3511 30.8932 20.6601 30.002 20.3682 29.2623C20.2205 28.9617 19.9937 28.7109 19.7141 28.5389C19.4345 28.367 19.1137 28.2809 18.7889 28.2908C18.5791 28.2738 18.3682 28.3 18.1682 28.3679C17.9682 28.4359 17.7831 28.5442 17.6236 28.6866C17.464 28.8291 17.3332 29.0029 17.2386 29.198C17.144 29.3932 17.0874 29.6058 17.0722 29.8237C17.1649 30.6338 17.5332 31.3829 18.1108 31.936C17.5394 32.3789 16.873 32.6712 16.1688 32.7876C15.4646 32.9041 14.7437 32.8412 14.068 32.6044C13.3872 32.3329 12.787 31.8804 12.3276 31.2923C11.8681 30.7042 11.5655 30.0011 11.4501 29.2533V29.2533C14.317 29.7613 16.3169 29.4762 17.5701 28.3621C18.1039 27.8836 18.5091 27.2694 18.746 26.5797C18.9829 27.2694 19.388 27.8836 19.9219 28.3621C21.1751 29.4672 23.175 29.7524 26.0418 29.2533C25.932 29.9955 25.6374 30.6951 25.1873 31.2828C24.7372 31.8705 24.1471 32.3261 23.4754 32.6044H23.4926ZM27.0976 27.6759C27.0831 27.6748 27.0686 27.6785 27.0562 27.6865C27.0439 27.6945 27.0343 27.7064 27.0289 27.7204V27.7204C26.8331 27.9371 26.5882 28.0995 26.3165 28.1928C26.2057 28.2361 26.0905 28.266 25.9732 28.2819C23.3982 28.7364 21.63 28.5225 20.6 27.6135C19.57 26.7044 19.3125 24.8596 19.2867 23.095C19.2867 22.7206 19.2867 22.3463 19.2867 21.9631H26.9259C27.7842 22.0077 27.7842 22.1948 27.7842 25.2517C27.8346 26.121 27.5851 26.9804 27.0804 27.6759H27.0976Z" fill="#171B49"/>
<path d="M37.1917 22.6133L34.8999 12.3195C34.8709 12.1973 34.797 12.0917 34.6939 12.0254C34.641 11.9902 34.5815 11.9672 34.5193 11.9579C34.4571 11.9487 34.3937 11.9535 34.3334 11.972C34.2129 12.0008 34.1081 12.0776 34.0416 12.1859C34.01 12.2385 33.9892 12.2973 33.9803 12.3586C33.9715 12.4199 33.9748 12.4824 33.9901 12.5424L36.2818 22.8271C36.3928 23.3256 36.3933 23.8437 36.2833 24.3424C36.1733 24.8411 35.9556 25.3073 35.6467 25.7058L27.6384 36.1421C27.3315 36.5453 26.94 36.8705 26.4938 37.0929C26.0476 37.3153 25.5583 37.4291 25.0634 37.4255H12.1883C11.6935 37.4284 11.2045 37.3144 10.7583 37.092C10.3122 36.8697 9.92066 36.5448 9.61333 36.1421L1.63081 25.6969C1.3219 25.2983 1.10421 24.8321 0.994178 24.3335C0.884147 23.8348 0.884649 23.3167 0.995644 22.8182L3.86249 9.79737C3.974 9.30393 4.19076 8.84277 4.49679 8.44789C4.80281 8.05302 5.19029 7.7345 5.63066 7.51582L17.2268 1.72283C17.5787 1.57356 17.9438 1.46014 18.3169 1.38416C18.5395 1.36152 18.7637 1.36152 18.9864 1.38416C19.1078 1.38419 19.2244 1.33471 19.3111 1.24637C19.3978 1.15803 19.4476 1.0379 19.4499 0.911812C19.45 0.791034 19.4057 0.67477 19.3258 0.586917C19.246 0.499064 19.1368 0.446297 19.0207 0.43946V0.43946C18.3918 0.37751 17.7576 0.465922 17.1667 0.697917V0.697917L16.9006 0.813777L11.5017 3.48747L5.23582 6.62459C4.66827 6.90697 4.1696 7.31903 3.77718 7.8299C3.38475 8.34077 3.10874 8.93722 2.96982 9.57456L0.102975 22.6133C-0.0356462 23.2504 -0.0351307 23.9117 0.104484 24.5486C0.244098 25.1855 0.51927 25.7819 0.909811 26.294L8.93525 36.7392C9.32694 37.252 9.82546 37.666 10.3934 37.95C10.9613 38.234 11.5838 38.3807 12.2141 38.3791H25.0891C25.7123 38.3747 26.3266 38.2251 26.8867 37.9412C27.4467 37.6574 27.9383 37.2466 28.3251 36.7392L36.3505 26.294C36.7486 25.7859 37.031 25.1909 37.1767 24.5536C37.3223 23.9162 37.3275 23.2529 37.1917 22.6133V22.6133Z" fill="#171B49"/>
</svg>
