<svg width="20" height="21" viewBox="0 0 20 21" fill="none" xmlns="http://www.w3.org/2000/svg">
<path d="M19 19.4174L13 13.2041M15 8.02638C15 8.97831 14.8189 9.92092 14.4672 10.8004C14.1154 11.6799 13.5998 12.479 12.9497 13.1521C12.2997 13.8252 11.5281 14.3592 10.6788 14.7234C9.82951 15.0877 8.91925 15.2752 8 15.2752C7.08075 15.2752 6.1705 15.0877 5.32122 14.7234C4.47194 14.3592 3.70026 13.8252 3.05025 13.1521C2.40024 12.479 1.88463 11.6799 1.53284 10.8004C1.18106 9.92092 1 8.97831 1 8.02638C1 6.10386 1.7375 4.26009 3.05025 2.90067C4.36301 1.54124 6.14348 0.777527 8 0.777527C9.85652 0.777527 11.637 1.54124 12.9497 2.90067C14.2625 4.26009 15 6.10386 15 8.02638Z" stroke="#6E6F7A" stroke-width="1.5" stroke-linecap="round" stroke-linejoin="round"/>
</svg>
